<!-- Generated by IcoMoon.io -->
<svg version="1.1" xmlns="http://www.w3.org/2000/svg" width="768" height="768" viewBox="0 0 768 768">
<title></title>
<g id="icomoon-ignore">
</g>
<path d="M480 160.5v-33h-31.5v33h31.5zM319.5 160.5v-33h-31.5v33h31.5zM496.5 69c48 34.5 79.5 91.5 79.5 154.5h-384c0-63 30-120 78-154.5l-42-42c-6-6-6-16.5 0-22.5s16.5-6 22.5 0l48 48c25.5-13.5 55.5-21 85.5-21s58.5 7.5 84 21l48-48c6-6 16.5-6 22.5 0s6 16.5 0 22.5zM655.5 256.5c27 0 48 21 48 48v223.5c0 27-21 48-48 48s-48-21-48-48v-223.5c0-27 21-48 48-48zM112.5 256.5c27 0 48 21 48 48v223.5c0 27-21 48-48 48s-48-21-48-48v-223.5c0-27 21-48 48-48zM192 576v-319.5h384v319.5c0 18-13.5 31.5-31.5 31.5h-33v112.5c0 27-21 48-48 48s-48-21-48-48v-112.5h-63v112.5c0 27-21 48-48 48s-48-21-48-48v-112.5h-33c-18 0-31.5-13.5-31.5-31.5z"></path>
</svg>
