<?xml version="1.0" encoding="utf-8"?>
<!-- Generator: Adobe Illustrator 23.0.6, SVG Export Plug-In . SVG Version: 6.00 Build 0)  -->
<svg version="1.1" id="Calque_1" xmlns="http://www.w3.org/2000/svg" xmlns:xlink="http://www.w3.org/1999/xlink" x="0px" y="0px"
	 viewBox="0 0 24.8 12.2" style="enable-background:new 0 0 24.8 12.2;" xml:space="preserve">
<path style="fill:#FFFFFF;" d="M23.2,3.4l0-1.7c-0.1-1-1-1.8-2-1.7L2,0C1,0,0.1,0.7,0,1.8l0,8.7c0.1,1,0.9,1.8,1.9,1.8
	c0,0,0.1,0,0.1,0l19.2,0c1,0.1,1.9-0.7,2-1.7l0-1.7h1.6V3.4H23.2z M2,10.3V1.9h19.2v8.4L2,10.3z M2,10.4L2,10.4L2,10.4L2,10.4z
	 M21.2,1.8L21.2,1.8L21.2,1.8L21.2,1.8z"/>
</svg>
