<?xml version="1.0" encoding="utf-8"?>
<!-- Generator: Adobe Illustrator 23.0.6, SVG Export Plug-In . SVG Version: 6.00 Build 0)  -->
<svg version="1.1" id="Calque_1" xmlns="http://www.w3.org/2000/svg" xmlns:xlink="http://www.w3.org/1999/xlink" x="0px" y="0px"
	 viewBox="0 0 73.1 36.2" style="enable-background:new 0 0 73.1 36.2;" xml:space="preserve">
<g>
	<path style="fill:#FFFFFF;" d="M73.1,17.1L73.1,17.1l-1.2-7.9c-0.2-1.2-1.2-2.1-2.5-2.1h-3.6c-1.4-3.3-4.5-5.5-8-5.8l-0.5,0
		c-7.7-0.5-15.8-1.7-23.6-1.2L33,0.2l-2.5,0.2L15,1.4C13,1.5,11.2,2.2,9.7,3.5L8.2,5C7.7,5.7,7.3,6.4,6.9,7.1H3.7
		C2.5,7.1,1.4,8,1.2,9.3L0,17.1c-0.2,1.4,0.7,2.6,2.1,2.8c0.1,0,0.2,0,0.4,0H5l-0.7,5.7c-0.7,5.1,3,9.8,8.1,10.5
		c0.4,0.1,0.8,0.1,1.2,0.1H21c1.8,0,3.6-0.3,5.3-0.9L36,32h0.7l9.7,3.4c0.6,0.2,1.2-0.1,1.4-0.7c0.2-0.6-0.1-1.2-0.7-1.4l-9.9-3.4
		c-0.1,0-0.2-0.1-0.4-0.1h-1.1c-0.1,0-0.2,0-0.4,0.1l-9.9,3.4c-1.5,0.5-3,0.8-4.6,0.8h-7.5c-4,0-7.2-3.2-7.2-7.2
		c0-0.3,0-0.6,0.1-0.9l0.9-6.9L8.7,8.5c0.9-2.8,3.4-4.7,6.4-4.9l18.5-1.2c7.8-0.5,16.1,0.7,24,1.2h0.1c3.4,0.2,6.2,2.9,6.7,6.3
		l2.1,16.1c0.5,4-2.3,7.6-6.3,8.1c-0.3,0-0.6,0.1-0.9,0.1h-4.6c-0.6,0-1.1,0.5-1.1,1.1c0,0.6,0.5,1.1,1.1,1.1h4.6
		c5.2,0,9.4-4.2,9.4-9.4c0-0.4,0-0.8-0.1-1.2L67.8,20h2.8c1.4,0,2.5-1.1,2.5-2.5C73.1,17.4,73.1,17.3,73.1,17.1z M6.3,9.5l-1.1,8.3
		H2.5c-0.2,0-0.4-0.2-0.4-0.4c0,0,0,0,0,0l1.2-7.9c0-0.2,0.2-0.3,0.3-0.3h2.6C6.3,9.4,6.3,9.5,6.3,9.5z M70.9,17.7
		c-0.1,0.1-0.2,0.1-0.3,0.1h-2.8l-1.2-8.6h2.8c0.2,0,0.3,0.1,0.3,0.3l1.2,7.9C71,17.6,70.9,17.7,70.9,17.7L70.9,17.7z"/>
	<polygon style="fill:#FFFFFF;" points="40.3,7.1 40.3,7.1 40.3,7.1 	"/>
	<path style="fill:#FFFFFF;" d="M30.2,8.2c0,0.6,0.5,1.1,1.1,1.1h9c0.6,0,1.1-0.5,1.1-1.1c0-0.6-0.5-1.1-1.1-1.1h-9
		C30.7,7.1,30.2,7.6,30.2,8.2z"/>
	<path style="fill:#FFFFFF;" d="M49.2,19.8l5.2-4.4c0.5-0.4,0.5-1.1,0.1-1.5c0,0,0,0,0,0c-0.4-0.5-1.1-0.5-1.5-0.1c0,0,0,0,0,0
		l-5.2,4.4c-0.5,0.4-0.5,1.1-0.1,1.5C48,20.1,48.7,20.2,49.2,19.8z"/>
	<path style="fill:#FFFFFF;" d="M45.3,28.4c0.4,0.5,1.1,0.5,1.5,0.1l13-11.1c0.5-0.4,0.5-1.1,0.1-1.5c0,0,0,0,0,0
		c-0.4-0.5-1.1-0.5-1.5-0.1c0,0,0,0,0,0l-13,11.1C45,27.3,44.9,28,45.3,28.4z"/>
	<path style="fill:#FFFFFF;" d="M17,19.8l5.2-4.4c0.5-0.4,0.5-1.1,0.1-1.5c0,0,0,0,0,0c-0.4-0.5-1.1-0.5-1.5-0.1c0,0,0,0,0,0
		l-5.2,4.4c-0.5,0.4-0.5,1.1-0.1,1.5C15.8,20.1,16.5,20.2,17,19.8z"/>
	<path style="fill:#FFFFFF;" d="M13.1,28.4c0.4,0.5,1.1,0.5,1.5,0.1l13-11.1c0.5-0.4,0.5-1.1,0.1-1.5c0,0,0,0,0,0
		c-0.4-0.5-1.1-0.5-1.5-0.1c0,0,0,0,0,0l-13,11.1C12.8,27.3,12.7,28,13.1,28.4z"/>
</g>
</svg>
