<?xml version="1.0" encoding="utf-8"?>
<!-- Generator: Adobe Illustrator 23.0.6, SVG Export Plug-In . SVG Version: 6.00 Build 0)  -->
<svg version="1.1" id="Calque_1" xmlns="http://www.w3.org/2000/svg" xmlns:xlink="http://www.w3.org/1999/xlink" x="0px" y="0px"
	 viewBox="0 0 23.1 18.6" style="enable-background:new 0 0 23.1 18.6;" xml:space="preserve">
<g id="Groupe_93" transform="translate(-90.205 -97.268)">
	<g id="Groupe_93-2" transform="translate(90.205 97.268)">
		<path id="Tracé_79" style="fill:#FFFFFF;" d="M22.1,1c-1.3-1.3-3.4-1.3-4.7,0l-9.1,9.1L5.7,7.4C4.3,6.2,2.2,6.2,0.9,7.5
			c-1.2,1.3-1.2,3.3,0,4.6L6.8,18c0.9,0.9,2.3,0.9,3.1,0L22.1,5.7C23.4,4.4,23.4,2.3,22.1,1z M20.9,4.5L8.7,16.8
			C8.5,17,8.2,17,8,16.8c0,0,0,0,0,0L2.1,11c-0.6-0.7-0.6-1.7,0.1-2.3c0.6-0.6,1.6-0.6,2.2,0l2.8,2.8c0.6,0.6,1.6,0.6,2.2,0
			c0,0,0,0,0,0l9.2-9.3c0.7-0.6,1.7-0.6,2.3,0.1C21.5,2.9,21.5,3.9,20.9,4.5L20.9,4.5z"/>
	</g>
</g>
</svg>
