<?xml version="1.0" encoding="utf-8"?>
<!-- Generator: Adobe Illustrator 23.0.6, SVG Export Plug-In . SVG Version: 6.00 Build 0)  -->
<svg version="1.1" id="Calque_1" xmlns="http://www.w3.org/2000/svg" xmlns:xlink="http://www.w3.org/1999/xlink" x="0px" y="0px"
	 viewBox="0 0 19 19" style="enable-background:new 0 0 19 19;" xml:space="preserve">
<path style="fill:#FFFFFF;" d="M11.6,9.5l6.9-6.9c0.6-0.6,0.6-1.5,0-2.1c-0.6-0.6-1.5-0.6-2.1,0L9.5,7.4L2.6,0.4
	C2-0.1,1-0.1,0.4,0.4C-0.1,1-0.1,2,0.4,2.6l6.9,6.9l-6.9,6.9c-0.6,0.6-0.6,1.5,0,2.1C0.7,18.9,1.1,19,1.5,19s0.8-0.1,1.1-0.4
	l6.9-6.9l6.9,6.9c0.3,0.3,0.7,0.4,1.1,0.4s0.8-0.1,1.1-0.4c0.6-0.6,0.6-1.5,0-2.1L11.6,9.5z"/>
</svg>
