<?xml version="1.0" encoding="utf-8"?>
<!-- Generator: Adobe Illustrator 23.0.6, SVG Export Plug-In . SVG Version: 6.00 Build 0)  -->
<svg version="1.1" id="Calque_1" xmlns="http://www.w3.org/2000/svg" xmlns:xlink="http://www.w3.org/1999/xlink" x="0px" y="0px"
	 viewBox="0 0 29 25.9" style="enable-background:new 0 0 29 25.9;" xml:space="preserve">
<g>
	<path style="fill:#FFFFFF;" d="M28.7,10.2L28.7,10.2L15,0.1c-0.3-0.2-0.6-0.2-0.9,0L0.3,10.2c-0.3,0.2-0.4,0.7-0.2,1
		c0.2,0.3,0.7,0.4,1,0.2c0,0,0,0,0,0l13.3-9.7l13.3,9.7c0.3,0.2,0.8,0.2,1.1-0.2C29.1,10.9,29,10.5,28.7,10.2z"/>
	<path style="fill:#FFFFFF;" d="M25.1,11.6C25.1,11.6,25.1,11.6,25.1,11.6c-0.4,0-0.8,0.3-0.8,0.8v12h-6v-6.5c0-2.1-1.6-3.8-3.7-3.8
		c-2.1,0-3.8,1.6-3.8,3.7c0,0,0,0.1,0,0.1v6.5h-6v-12c0-0.4-0.3-0.8-0.8-0.8c-0.4,0-0.8,0.3-0.8,0.8v12.7c0,0.4,0.3,0.8,0.8,0.8h7.5
		c0.4,0,0.7-0.3,0.8-0.7c0,0,0,0,0-0.1v-7.3c0-1.2,1-2.3,2.2-2.3c1.2,0,2.3,1,2.3,2.2c0,0,0,0.1,0,0.1v7.3c0,0,0,0,0,0.1
		c0,0.4,0.4,0.7,0.8,0.7h7.5c0.4,0,0.8-0.3,0.8-0.8c0,0,0,0,0,0V12.4C25.8,11.9,25.5,11.6,25.1,11.6z"/>
</g>
</svg>
