<?xml version="1.0" encoding="utf-8"?>
<!-- Generator: Adobe Illustrator 23.0.6, SVG Export Plug-In . SVG Version: 6.00 Build 0)  -->
<svg version="1.1" id="Calque_1" xmlns="http://www.w3.org/2000/svg" xmlns:xlink="http://www.w3.org/1999/xlink" x="0px" y="0px"
	 viewBox="0 0 24 14.3" style="enable-background:new 0 0 24 14.3;" xml:space="preserve">
<g id="Groupe_82" transform="translate(23.98) rotate(90)">
	<path id="Tracé_62" style="fill:#FFFFFF;" d="M6.5,23.7C6.6,23.9,6.9,24,7.1,24c0.3,0,0.5-0.1,0.7-0.3l6.2-6.2
		c0.4-0.4,0.4-1,0-1.4c-0.4-0.4-1-0.4-1.3,0l-4.5,4.5V1c0-0.5-0.4-1-0.9-1s-1,0.4-1,0.9c0,0,0,0,0,0.1v19.7l-4.5-4.5
		c-0.4-0.4-1-0.4-1.4,0c-0.4,0.4-0.4,1,0,1.4l0,0L6.5,23.7z"/>
</g>
</svg>
