<?xml version="1.0" encoding="utf-8"?>
<!-- Generator: Adobe Illustrator 23.0.6, SVG Export Plug-In . SVG Version: 6.00 Build 0)  -->
<svg version="1.1" id="Calque_1" xmlns="http://www.w3.org/2000/svg" xmlns:xlink="http://www.w3.org/1999/xlink" x="0px" y="0px"
	 viewBox="0 0 17.7 22.6" style="enable-background:new 0 0 17.7 22.6;" xml:space="preserve">
<g id="Groupe_92" transform="translate(-10.46 -32.25)">
	<path id="Tracé_76" style="fill:#FFFFFF;" d="M15,52.8c-1.7,0-3-1.4-3-3V37.2c0-1.7,1.3-3.1,3-3.1s3.1,1.3,3.1,3c0,0,0,0.1,0,0.1
		v12.6C18,51.5,16.7,52.8,15,52.8z M15,36.1c-0.6,0-1.1,0.5-1.1,1.1v12.6c0,0.6,0.5,1.1,1.1,1.1s1.1-0.5,1.1-1.1V37.2
		C16.1,36.6,15.6,36.1,15,36.1z"/>
</g>
<g id="Groupe_92_1_" transform="translate(-10.46 -32.25)">
	<path id="Tracé_76_1_" style="fill:#FFFFFF;" d="M23.7,53c-1.7,0-3-1.4-3-3V37.4c0-1.7,1.3-3.1,3-3.1s3.1,1.3,3.1,3
		c0,0,0,0.1,0,0.1v12.6C26.7,51.6,25.3,53,23.7,53z M23.7,36.2c-0.6,0-1.1,0.5-1.1,1.1v12.6c0,0.6,0.5,1.1,1.1,1.1s1.1-0.5,1.1-1.1
		V37.4C24.8,36.7,24.3,36.2,23.7,36.2z"/>
</g>
</svg>
