<?xml version="1.0" encoding="utf-8"?>
<!-- Generator: Adobe Illustrator 23.0.6, SVG Export Plug-In . SVG Version: 6.00 Build 0)  -->
<svg version="1.1" id="Calque_1" xmlns="http://www.w3.org/2000/svg" xmlns:xlink="http://www.w3.org/1999/xlink" x="0px" y="0px"
	 viewBox="0 0 24 14.3" style="enable-background:new 0 0 24 14.3;" xml:space="preserve">
<g id="Groupe_82" transform="translate(23.98) rotate(90)">
	<path id="Tracé_62" style="fill:#FFFFFF;" d="M7.8,0.3C7.6,0.1,7.4,0,7.1,0C6.9,0,6.6,0.1,6.4,0.3L0.3,6.4c-0.4,0.4-0.4,1,0,1.4
		c0.4,0.4,1,0.4,1.3,0l4.5-4.5V23c0,0.5,0.4,1,0.9,1s1-0.4,1-0.9c0,0,0,0,0-0.1V3.3l4.5,4.5c0.4,0.4,1,0.4,1.4,0
		c0.4-0.4,0.4-1,0-1.4l0,0L7.8,0.3z"/>
</g>
</svg>
