<?xml version="1.0" encoding="utf-8"?>
<!-- Generator: Adobe Illustrator 23.0.6, SVG Export Plug-In . SVG Version: 6.00 Build 0)  -->
<svg version="1.1" id="Calque_1" xmlns="http://www.w3.org/2000/svg" xmlns:xlink="http://www.w3.org/1999/xlink" x="0px" y="0px"
	 viewBox="0 0 62 59.5" style="enable-background:new 0 0 62 59.5;" xml:space="preserve">
<g id="Groupe_173" transform="translate(0 -10.262)">
	<g id="Groupe_122" transform="translate(0 10.262)">
		<path id="Tracé_99" style="fill:#FFFFFF;" d="M61.9,32.6c-1-10.5-8.7-19.1-19-21.4V8.1c2.2-0.5,3.6-2.8,3-5
			c-0.5-1.8-2.1-3.1-4-3.1h-8.7C30.9,0,29,1.8,29,4.1c0,1.9,1.3,3.5,3.1,4v3.1c-4.5,1-8.7,3.3-11.9,6.6c-0.7,0.7-1.4,1.5-2.1,2.3
			c0,0-0.1,0-0.1,0H9.5c-0.7,0-1.2,0.5-1.2,1.2s0.5,1.2,1.2,1.2h7.1c-0.9,1.5-1.6,3-2.1,4.7H1.2c-0.7,0-1.2,0.5-1.2,1.2
			c0,0.7,0.5,1.2,1.2,1.2h12.5c-0.3,1.5-0.5,3.1-0.6,4.7H7.8c-0.7,0-1.2,0.5-1.2,1.2c0,0.7,0.5,1.2,1.2,1.2h5.4
			c0.1,1.6,0.4,3.1,0.8,4.7H6.1c-0.7,0-1.2,0.5-1.2,1.2c0,0.7,0.5,1.2,1.2,1.2h8.6c3.3,8.7,11.2,14.7,20.5,15.7
			c0.8,0.1,1.6,0.1,2.4,0.1c4.7,0,9.4-1.4,13.4-3.9c0.6-0.4,0.7-1.1,0.4-1.7c-0.4-0.6-1.1-0.7-1.7-0.4l0,0
			c-10.2,6.6-23.9,3.7-30.5-6.5s-3.7-23.9,6.5-30.5s23.9-3.7,30.5,6.5c4.7,7.3,4.7,16.7,0,24c-0.4,0.6-0.2,1.3,0.3,1.7
			c0.6,0.4,1.3,0.2,1.7-0.3c0,0,0,0,0,0C61.1,43.7,62.4,38.2,61.9,32.6z M31.5,4.1c0-0.9,0.8-1.7,1.7-1.7h8.7
			c0.9-0.1,1.8,0.6,1.8,1.6c0.1,0.9-0.6,1.8-1.6,1.8c-0.1,0-0.2,0-0.2,0h-8.7C32.2,5.8,31.5,5.1,31.5,4.1z M34.6,10.8V8.2h5.9v2.5
			C38.5,10.5,36.5,10.5,34.6,10.8z"/>
		<path id="Tracé_100" style="fill:#FFFFFF;" d="M54,50.3c-0.7,0-1.2,0.5-1.2,1.2s0.5,1.2,1.2,1.2s1.2-0.5,1.2-1.2
			c0-0.3-0.1-0.6-0.4-0.9C54.6,50.4,54.3,50.3,54,50.3z"/>
		<path id="Tracé_101" style="fill:#FFFFFF;" d="M37.5,16.3c-10.4,0-18.8,8.4-18.8,18.8s8.4,18.8,18.8,18.8s18.8-8.4,18.8-18.8
			C56.3,24.7,47.9,16.3,37.5,16.3z M37.5,51.4c-9,0-16.4-7.3-16.4-16.4c0-9,7.3-16.4,16.4-16.4c9,0,16.4,7.3,16.4,16.4c0,0,0,0,0,0
			C53.9,44.1,46.6,51.4,37.5,51.4L37.5,51.4z"/>
		<path id="Tracé_102" style="fill:#FFFFFF;" d="M45.2,25.7l-6,6c-1-0.5-2.3-0.5-3.3,0L33.2,29c-0.5-0.5-1.2-0.5-1.7,0
			c-0.5,0.5-0.5,1.2,0,1.7l2.7,2.7c-0.9,1.9-0.2,4.1,1.7,5c1.9,0.9,4.1,0.2,5-1.7c0.5-1,0.5-2.3,0-3.3l5.8-5.8l0,0l0.2-0.2
			c0.5-0.5,0.5-1.2,0-1.7C46.4,25.2,45.7,25.2,45.2,25.7L45.2,25.7z M37.5,36.4c-0.7,0-1.3-0.6-1.3-1.3s0.6-1.3,1.3-1.3
			c0.7,0,1.3,0.6,1.3,1.3C38.9,35.8,38.3,36.4,37.5,36.4z"/>
		<path id="Tracé_103" style="fill:#FFFFFF;" d="M50.5,33.9h-1.1c-0.7,0-1.2,0.5-1.2,1.2s0.5,1.2,1.2,1.2c0,0,0,0,0,0h1.1
			c0.7,0,1.2-0.5,1.2-1.2C51.7,34.4,51.2,33.9,50.5,33.9z"/>
		<path id="Tracé_104" style="fill:#FFFFFF;" d="M25.7,33.8h-1.1c-0.7,0-1.2,0.5-1.2,1.2s0.5,1.2,1.2,1.2c0,0,0,0,0,0h1.1
			c0.7,0,1.2-0.5,1.2-1.2S26.4,33.8,25.7,33.8C25.7,33.8,25.7,33.8,25.7,33.8L25.7,33.8z"/>
		<path id="Tracé_105" style="fill:#FFFFFF;" d="M37.6,24.4c0.7,0,1.2-0.5,1.2-1.2v-1.1c0-0.7-0.5-1.2-1.2-1.2
			c-0.7,0-1.2,0.5-1.2,1.2v1.1C36.3,23.9,36.9,24.4,37.6,24.4z"/>
		<path id="Tracé_106" style="fill:#FFFFFF;" d="M37.5,45.7c-0.7,0-1.2,0.5-1.2,1.2V48c0,0.7,0.5,1.2,1.2,1.2s1.2-0.5,1.2-1.2
			c0,0,0,0,0,0v-1.1C38.7,46.2,38.2,45.7,37.5,45.7z"/>
		<path id="Tracé_107" style="fill:#FFFFFF;" d="M1.2,41.3c-0.7,0-1.2,0.5-1.2,1.2c0,0.7,0.5,1.2,1.2,1.2c0.3,0,0.6-0.1,0.9-0.4
			c0.5-0.5,0.5-1.2,0-1.7C1.8,41.4,1.5,41.3,1.2,41.3z"/>
	</g>
</g>
</svg>
