<?xml version="1.0" encoding="utf-8"?>
<!-- Generator: Adobe Illustrator 23.0.6, SVG Export Plug-In . SVG Version: 6.00 Build 0)  -->
<svg version="1.1" id="Calque_1" xmlns="http://www.w3.org/2000/svg" xmlns:xlink="http://www.w3.org/1999/xlink" x="0px" y="0px"
	 viewBox="0 0 6.1 23.1" style="enable-background:new 0 0 6.1 23.1;" xml:space="preserve">
<g id="Groupe_92" transform="translate(-10.46 -32.25)">
	<path id="Tracé_76" style="fill:#FFFFFF;" d="M13.5,47c-1.7,0-3-1.4-3-3v-8.6c0-1.7,1.3-3.1,3-3.1s3.1,1.3,3.1,3c0,0,0,0.1,0,0.1
		v8.6C16.5,45.6,15.2,47,13.5,47z M13.5,34.2c-0.6,0-1.1,0.5-1.1,1.1v8.6c0,0.6,0.5,1.1,1.1,1.1s1.1-0.5,1.1-1.1v-8.6
		C14.6,34.7,14.1,34.2,13.5,34.2z"/>
	<path id="Tracé_77" style="fill:#FFFFFF;" d="M13.5,55.3c-1.7,0-3-1.4-3-3c0-1.7,1.4-3,3-3c1.7,0,3,1.4,3,3c0,0.8-0.3,1.6-0.9,2.2
		C15.1,55,14.3,55.3,13.5,55.3z M13.5,51.1c-0.6,0-1.1,0.5-1.1,1.1c0,0.6,0.5,1.1,1.1,1.1c0.6,0,1.1-0.5,1.1-1.1
		C14.6,51.7,14.1,51.1,13.5,51.1z"/>
</g>
</svg>
